<svg width="20" height="18" viewBox="0 0 20 18" fill="none" xmlns="http://www.w3.org/2000/svg">
<path fill-rule="evenodd" clip-rule="evenodd" d="M20 9.00023C20.0001 9.13267 19.9739 9.2638 19.9229 9.38603C19.8719 9.50825 19.7972 9.61913 19.703 9.71223L11.597 17.7122C11.4082 17.8985 11.1531 18.0022 10.8878 18.0004C10.6225 17.9987 10.3688 17.8916 10.1825 17.7027C9.99619 17.5139 9.89252 17.2588 9.8943 16.9935C9.89608 16.7282 10.0032 16.4745 10.192 16.2882L16.563 10.0002L1 10.0002C0.734784 10.0002 0.48043 9.89488 0.292893 9.70734C0.105357 9.5198 0 9.26545 0 9.00023C0 8.73502 0.105357 8.48066 0.292893 8.29313C0.48043 8.10559 0.734784 8.00023 1 8.00023L16.563 8.00023L10.192 1.71223C10.0985 1.61998 10.0241 1.51021 9.973 1.3892C9.92192 1.26819 9.89518 1.1383 9.8943 1.00695C9.89342 0.875603 9.91841 0.745365 9.96786 0.623678C10.0173 0.501991 10.0902 0.391235 10.1825 0.297733C10.2748 0.204231 10.3845 0.129818 10.5055 0.0787373C10.6265 0.0276566 10.7564 0.00091362 10.8878 3.05176e-05C11.0191 -0.000852585 11.1494 0.0241451 11.2711 0.073595C11.3927 0.123045 11.5035 0.19598 11.597 0.288233L19.702 8.28823C19.7964 8.38125 19.8713 8.49209 19.9225 8.61432C19.9736 8.73655 20 8.86773 20 9.00023Z" fill="black"/>
</svg>
